# xmcd
#
# Track frame offsets:
#	150
#	20015
#	35739
#	51266
#	65284
#	76058
#	91907
#	113795
#	127316
#	141128
#	157833
#	168230
#	186530
#	198252
#
# Disc length: 2937 seconds
#
# Revision: 0
# Processed by: cddbd v1.5.1PL0 Copyright (c) Steve Scherf et al.
# Submitted via: dBpowerAMP V4.0
#
DISCID=be0b770e
DTITLE=Carlos Díaz "Caíto" - Simplemente Caíto
DYEAR=1900
DGENRE=Nueva Canción
TTITLE0=Tu risa
TTITLE1=Siempre será el amor
TTITLE2=Nada sabe tan dulce como su boca
TTITLE3=Coincidir
TTITLE4=Anda
TTITLE5=Amigo mío
TTITLE6="E´ungenio" Salvador Dalí
TTITLE7=Dime
TTITLE8=Cuando ya me empiece a quedar solo
TTITLE9=Si de tanto soñarte
TTITLE10=Te perdono
TTITLE11=Mi historia (Gesubambino)
TTITLE12=Quizás porque
TTITLE13=Todo a pulmón
EXTD=
EXTT0=
EXTT1=
EXTT2=
EXTT3=
EXTT4=
EXTT5=
EXTT6=
EXTT7=
EXTT8=
EXTT9=
EXTT10=
EXTT11=
EXTT12=
EXTT13=
PLAYORDER=
